<?xml version="1.0" encoding="utf-8"?>
<!-- Generator: Adobe Illustrator 27.3.1, SVG Export Plug-In . SVG Version: 6.00 Build 0)  -->
<svg version="1.1" id="Layer_1" xmlns="http://www.w3.org/2000/svg" xmlns:xlink="http://www.w3.org/1999/xlink" x="0px" y="0px"
	 viewBox="0 0 856.9 950.7" style="enable-background:new 0 0 856.9 950.7;" xml:space="preserve">
<style type="text/css">
	.st0{clip-path:url(#SVGID_00000124880447865652710460000001469154358370048384_);}
	.st1{fill:none;stroke:#000000;stroke-miterlimit:10;}
	.st2{fill:none;}
	.st3{fill:#706BFF;}
	.st4{font-family:'Righteous-Regular';}
	.st5{font-size:106.08px;}
	.st6{letter-spacing:-2;}
	.st7{clip-path:url(#SVGID_00000126284633621534799120000015997841670853614493_);}
	.st8{fill:none;stroke:#FFFFFF;stroke-width:5;stroke-miterlimit:10;}
	.st9{fill:none;stroke:#E3F08E;stroke-width:5;stroke-miterlimit:10;}
	.st10{fill:#FDA4E0;}
	.st11{fill:none;stroke:#000000;stroke-width:1.9214;stroke-miterlimit:10;}
	.st12{fill:#FFFFFF;}
	.st13{fill:#FFFFFF;stroke:#000000;stroke-miterlimit:10;}
	.st14{fill:#FFFFFF;stroke:#000000;stroke-width:1.7202;stroke-miterlimit:10;}
	.st15{fill:#FFFFFF;stroke:#FFFFFF;stroke-width:2.0298;stroke-miterlimit:10;}
	.st16{fill:#4A45D0;}
	.st17{fill:#302BC1;}
	.st18{fill:#EE76C5;}
	.st19{fill:#E3F08E;}
	.st20{stroke:#FFFFFF;stroke-width:4;stroke-miterlimit:10;}
	.st21{fill:#FDA4E0;stroke:#000000;stroke-miterlimit:10;}
	.st22{fill:#2D29C2;stroke:#000000;stroke-miterlimit:10;}
	.st23{fill:#E3F08E;stroke:#000000;stroke-miterlimit:10;}
	.st24{fill:none;stroke:#FDA4E0;stroke-width:3;stroke-miterlimit:10;}
	.st25{fill:#2D29C2;}
	.st26{font-family:'Poppins-Medium';}
	.st27{font-size:26px;}
</style>
<g>
	<defs>
		
			<rect id="SVGID_1_" x="-46.1" y="46.1" transform="matrix(-1.836970e-16 1 -1 -1.836970e-16 903.01 46.14)" width="949.2" height="856.9"/>
	</defs>
	<clipPath id="SVGID_00000054983095620946324980000017400943909149926562_">
		<use xlink:href="#SVGID_1_"  style="overflow:visible;"/>
	</clipPath>
	<g style="clip-path:url(#SVGID_00000054983095620946324980000017400943909149926562_);">
		<rect x="-135.7" y="598.7" class="st1" width="500" height="553.9"/>
		<line class="st1" x1="-90.2" y1="598.7" x2="-90.2" y2="1152.6"/>
		<line class="st1" x1="-44.8" y1="598.7" x2="-44.8" y2="1152.6"/>
		<line class="st1" x1="0.7" y1="598.7" x2="0.7" y2="1152.6"/>
		<line class="st1" x1="46.1" y1="598.7" x2="46.1" y2="1152.6"/>
		<line class="st1" x1="91.6" y1="598.7" x2="91.6" y2="1152.6"/>
		<line class="st1" x1="137" y1="598.7" x2="137" y2="1152.6"/>
		<line class="st1" x1="182.5" y1="598.7" x2="182.5" y2="1152.6"/>
		<line class="st1" x1="228" y1="598.7" x2="228" y2="1152.6"/>
		<line class="st1" x1="273.4" y1="598.7" x2="273.4" y2="1152.6"/>
		<line class="st1" x1="318.9" y1="598.7" x2="318.9" y2="1152.6"/>
		<line class="st1" x1="364.3" y1="1102.2" x2="-135.7" y2="1102.2"/>
		<line class="st1" x1="364.3" y1="1051.9" x2="-135.7" y2="1051.9"/>
		<line class="st1" x1="364.3" y1="1001.5" x2="-135.7" y2="1001.5"/>
		<line class="st1" x1="364.3" y1="951.1" x2="-135.7" y2="951.1"/>
		<line class="st1" x1="364.3" y1="900.8" x2="-135.7" y2="900.8"/>
		<line class="st1" x1="364.3" y1="850.4" x2="-135.7" y2="850.4"/>
		<line class="st1" x1="364.3" y1="800.1" x2="-135.7" y2="800.1"/>
		<line class="st1" x1="364.3" y1="749.7" x2="-135.7" y2="749.7"/>
		<line class="st1" x1="364.3" y1="699.4" x2="-135.7" y2="699.4"/>
		<line class="st1" x1="364.3" y1="649" x2="-135.7" y2="649"/>
	</g>
</g>
<g>
	<g>
		<path d="M616.4,1292.6c77.6-85.3,157.8-172.9,202.9-280.6c38.4-91.6,56.8-227.5-33-296.3c-79.6-60.9-193.4-45-276.4-0.8
			c-46.1,24.5-87.3,58.3-123.4,95.7c-35.4,36.7-66.4,78.5-89.5,124.1c-21.9,43.4-37,90.6-39.5,139.3c-2.2,44.7,6.1,97.1,34.5,133.1
			c15.6,19.7,39.1,30.9,64.4,28.3c27.2-2.8,53.5-15.8,76.5-30c44.1-27.4,79.7-65.9,110.9-106.9c65.8-86.5,113.6-187.6,136.3-294
			c11.1-52.3,16.7-106.4,14.6-159.9c-2.2-54.9-13.5-111.1-43.1-158.2c-25.7-40.8-63.6-73.1-108.9-90.3
			c-50.2-19-106.1-15.8-157.2-2.3c-52.7,14-102.3,38.8-148.4,67.5c-44.3,27.6-86,59.8-124,95.7C38.4,627.8-26,716.1-59.7,814
			c-9.1,26.5-15.5,54.1-17.1,82.2c-1.3,22.3,1.4,46.8,21.4,60.6c33.6,23.2,76-1.6,102.9-23.3c30.6-24.7,55.8-55.9,79.2-87.3
			c28.6-38.4,53.1-79.2,73.1-122.7c24.1-52.5,43.3-107.3,59.7-162.7c16.9-57.2,29.8-115.9,33.6-175.5c6.4-99.6-16.6-200-80.1-278.6
			C151.7,30.9,54.5-15.3-43.3,2.3c-47,8.5-89.5,32.2-123.1,65.8c-30.1,30.1-57.8,68.4-67.6,110.5c-4.5,19.3-5,40.1,2.5,58.8
			c6.8,17.1,19.3,32.3,34.7,42.5c26.1,17.3,57.8,12.4,84.4-0.9c30.7-15.4,56.6-40.4,79.6-65.4C-11,190,8.7,164.6,27.9,138.8
			C88.6,57.2,139.7-30,172.1-126.9c16.5-49.4,27.7-100.4,33.7-152.1c0.8-7.2-6.8-13.5-13.5-13.5c-8,0-12.6,6.2-13.5,13.5
			C167.3-178.4,132.6-81.3,83.1,6.8c-22.3,39.7-47.9,77.1-75,113.7c-16.9,22.8-33.1,43.9-52.3,65.7c-20.9,23.7-43.7,46.9-70.5,63.3
			c-12.1,7.4-21.7,12-35.6,14.4c-2.6,0.5,1,0-1.6,0.2c-1.5,0.1-3,0.2-4.5,0.3c-1.5,0-3,0-4.4,0c-0.9,0-5.2-0.5-2.7-0.1
			c-6.8-1-11.1-2.6-15.6-5.1c-10.6-5.9-21.3-17.1-26.8-29.7c-6.5-15-5.3-32-1.2-47.5c10-37.8,35.6-71.6,63.3-98.4
			c31.5-30.4,71.3-50.4,114.8-56.5c44.7-6.2,90.3,2.6,130.3,23c76.7,39.1,129.4,112.4,152.1,194.4c28.3,102.1,9,211-20.6,310.5
			c-28.7,96.4-65.6,190.1-125.4,271.8c-20.9,28.6-43.6,56.5-70.2,80c-11.9,10.5-26,21.1-40.2,27c-6.4,2.6-13.6,4.5-18.8,4.8
			c-7,0.4-13.3,0.1-19.7-4.9c-14.2-11.1-9-39-7-53.9c3.6-26.1,11.4-51.7,21.1-76.2c17.9-45.4,43.2-88.3,71.7-127.8
			c55.6-77.2,127.7-142.6,208.5-192.6c81-50.1,187.1-97.4,282.6-61.2c40.2,15.3,73.9,46,95.7,82.7c26.3,44.1,35.4,96.1,36.7,146.8
			c2.6,99.8-20.3,200.3-61.9,290.9c-21.6,47.1-48.1,91.8-78.9,133.5c-27.9,37.8-60,74.1-99.3,100.5c-20.1,13.5-42.9,26.2-66.9,31.1
			c-21.9,4.5-40.3-4.9-52.2-23.2c-22.6-34.8-27.2-81.5-23.4-121.9c8.5-91.3,63.2-175.7,126.4-239.3
			c65.7-66.1,152.2-122.5,248.7-120.5c40.5,0.8,84,11.7,115.3,38.8c36.5,31.6,48.2,80.1,48.1,126.7c-0.2,106.2-58.2,203.9-122,284.9
			c-32.9,41.7-68.7,81.1-104.4,120.4C585.7,1286.4,604.7,1305.5,616.4,1292.6L616.4,1292.6z"/>
	</g>
</g>
<rect x="-46.1" y="46.1" transform="matrix(-1.836970e-16 1 -1 -1.836970e-16 903.01 46.14)" class="st2" width="949.2" height="856.9"/>
<text transform="matrix(1 0 0 1 14.06 215.88)" class="st3 st4 st5">WEB</text>
<text transform="matrix(1 0 0 1 233.01 215.88)" class="st4 st5"> DEVE</text>
<text transform="matrix(1 0 0 1 518.57 215.88)" class="st4 st5 st6">L</text>
<text transform="matrix(1 0 0 1 575.76 215.88)" class="st4 st5">OPER</text>
<text transform="matrix(1 0 0 1 188.54 90.18)" class="st4 st5">I’M KARIM</text>
<rect class="st2" width="856.9" height="949.2"/>
<g>
	<defs>
		<circle id="SVGID_00000169555023130212643360000013622437104480473021_" cx="435.5" cy="530.7" r="238"/>
	</defs>
	<clipPath id="SVGID_00000169551372981925825860000003257292948068123321_">
		<use xlink:href="#SVGID_00000169555023130212643360000013622437104480473021_"  style="overflow:visible;"/>
	</clipPath>
	<g style="clip-path:url(#SVGID_00000169551372981925825860000003257292948068123321_);">
		
			<image style="overflow:visible;enable-background:new    ;" width="387" height="387" xlink:href="../../../../portfolio/img/me.jpg"  transform="matrix(1.23 0 0 1.23 191.46 292.66)">
		</image>
	</g>
</g>
<rect class="st2" width="856.9" height="949.2"/>
<g>
	<line class="st8" x1="134.5" y1="438.1" x2="182.6" y2="438.1"/>
	<line class="st8" x1="134.5" y1="450.6" x2="182.6" y2="450.6"/>
	<polyline class="st8" points="115.6,444.8 119.9,449.5 128.6,439.9 	"/>
	<line class="st8" x1="134.5" y1="474.4" x2="182.6" y2="474.4"/>
	<line class="st8" x1="134.5" y1="486.9" x2="182.6" y2="486.9"/>
	<polyline class="st8" points="115.6,481.1 119.9,485.8 128.6,476.2 	"/>
</g>
<g>
	<g>
		<g>
			<line class="st9" x1="745.7" y1="628.5" x2="820.2" y2="637.7"/>
		</g>
		<g>
			<line class="st9" x1="768.2" y1="578.2" x2="820" y2="638.2"/>
		</g>
		<g>
			<line class="st9" x1="814.7" y1="555.6" x2="819.5" y2="638.5"/>
		</g>
		<g>
			<line class="st9" x1="863.4" y1="571.4" x2="819" y2="638.3"/>
		</g>
		<g>
			<line class="st9" x1="891.6" y1="618.2" x2="818.7" y2="637.8"/>
		</g>
		<g>
			<line class="st9" x1="885.9" y1="674.1" x2="818.8" y2="637.3"/>
		</g>
		<g>
			<line class="st9" x1="849.2" y1="712.9" x2="819.2" y2="636.9"/>
		</g>
		<g>
			<line class="st9" x1="798.6" y1="716.5" x2="819.7" y2="636.8"/>
		</g>
		<g>
			<line class="st9" x1="757.7" y1="683.2" x2="820.1" y2="637.2"/>
		</g>
	</g>
</g>
<g>
	<path d="M55.4,464.3L55.4,464.3L55.4,464.3L55.4,464.3L55.4,464.3L55.4,464.3L55.4,464.3l-0.1,0.1h0v0h0v0h0v0h0v0h0v0h0v0h0v0h0v0
		h0v0h0v0h0v0h0v0h0v0h0v0h0v0h0v0h0v0h0v0h0v0h0v0h0v0h0v0h0v0h0v0h0v0h0v0h0v0h0v0h0v0h0v0h0v0h0v0h0v0h0v0h0v0h0v0h0v0h0v0h0v0h0
		v0h0v0h0v0h0v0h0v0h0v0h0v0h0v0h0v0h0v0h0v0h0v0h0v0h0v0h0v0h0v0h0v0h0v0h0v0h0v0h0v0h0v0h0v0h0v0h0v0h0v0h0v0h0v0h0v0h0v0h0v0h0v0
		h0v0h0v0h0v0h0v0h0v0h0v0h0v0h0v0h0v0h0v0h0v0h0v0h0v0h0v0h0v0h0v0h0v0h0v0h0v0h0v0h0v0h0v0h0v0h0v0h0v0h0v4.6
		c-1,0.5-1.9,1-2.8,1.7l-3.9-4.3l0,0l0,0l0,0l0,0l0,0l0,0l0,0l0,0l0,0l0,0l0,0l0,0l0,0l0,0l0,0l0,0l0,0l0,0l0,0l0,0l0,0l0,0l0,0l0,0
		l0,0l0,0l0,0l0,0l0,0l0,0l0,0l0,0l0,0l0,0l0,0l0,0l0,0l0,0l0,0l0,0l0,0l0,0l0,0l0,0l0,0l0,0l0,0l0,0l0,0l0,0l0,0l0,0l0,0l0,0l0,0
		l0,0l0,0l0,0l0,0l0,0l0,0l0,0l0,0l0,0l0,0l0,0l0,0l0,0l0,0l0,0l0,0l0,0l0,0l0,0l0,0l0,0l0,0l0,0l0,0l0,0l0,0l0,0l0,0l0,0l0,0l0,0
		l0,0l0,0l0,0l0,0l0,0l0,0l0,0l0,0l0,0l0,0l0,0l0,0l0,0l0,0l0,0l0,0l0,0l0,0l0,0l0,0l0,0l0,0l0,0l0,0l0,0l0,0l0,0l0,0l0,0l0,0l0,0
		l0,0l0,0l0,0l0,0l0,0l0,0l0,0l0,0l0,0l0,0l0,0l0,0l0,0l0,0l0,0l0,0l0,0l0,0l0,0l0,0l0,0l0,0l0,0l0,0l0,0l0,0l0,0l0,0l0,0l0,0l0,0
		l0,0l0,0l0,0l0,0l0,0l0,0l0,0l0,0l0,0l0,0l0,0l0,0l0,0l0,0l0,0l0,0l0,0l0,0l0,0l0,0l0,0l0,0l0,0l0,0l0,0l0,0l0,0l0,0l0,0l0,0l0,0
		l0,0l0,0l0,0l0,0l0,0l0,0l0,0l0,0l0,0l0,0l0,0l0,0l0,0l0,0l0,0l0,0l0,0l0,0l0,0l0,0l0,0l-6.3,7l4,4.5c-0.6,1.1-1.1,2.3-1.5,3.6
		h-3.6v0h0v0h0v0h0v0h0v0h0v0h0v0h0v0h0v0h0v0h0v0h0v0h0v0h0v0h0v0h0v0h0v0h0v0h0v0h0v0h0v0h0v0h0v0h0v0h0v0h0v0h0v0h0v0h0v0h0v0h0
		v0h0v0h0v0h0v0h0v0h0v0h0v0h0v0h0v0h0v0h0v0h0v0h0v0h0v0h0v0h0v0h0v0h0v0h0v0h0v0h0v0h0v0h0v0h0v0h0v0h0v0h0v0h0v0h0v0h0v0h0v0h0v0
		h0v0h0v0h0v0h0v0h0v0h0v0h0v0h0v0h0v0h0v0h0v0h0v0h0v0h0v0h0v0h0v0h0v0h0v0h0v0h0v0h0v0h0v0h0v0h0v0h0v0h0v0h0v0h0v0h0v0h0v0h0v0h0
		v0h0v0h0v0h0v0h0v0h0v0h0v0h0v9.9h6c0.5,2.2,1.3,4.3,2.3,6.2l-4.1,4.6l6.3,7l0,0l0,0l0,0l0,0l0,0l0,0l0,0l0,0l0,0l0,0l0,0l0,0l0,0
		l0,0l0,0l0,0l0,0l0,0l0,0l0,0l0,0l0,0l0,0l0,0l0,0l0,0l0,0l0,0l0,0l0,0l0,0l0,0l0,0l0,0l0,0l0,0l0,0l0,0l0,0l0,0l0,0l0,0l0,0l0,0
		l0,0l0,0l0,0l0,0l0,0l0,0l0,0l0,0l0,0l0,0l0,0l0,0l0,0l0,0l0,0l0,0l0,0l0,0l0,0l0,0l0,0l0,0l0,0l0,0l0,0l0,0l0,0l0,0l0,0l0,0l0,0
		l0,0l0,0l0,0l0,0l0,0l0,0l0,0l0,0l0,0l0,0l0,0l0,0l0,0l0,0l0,0l0,0l0,0l0,0l0,0l0,0l0,0l0,0l0,0l0,0l0,0l0,0l0,0l0,0l0,0l0,0l0,0
		l0,0l0,0l0,0l0,0l0,0l0,0l0,0l0,0l0,0l0,0l0,0l0,0l0,0l0,0l0,0l0,0l0,0l0,0l0,0l0,0l0,0l0,0l0,0l0,0l0,0l0,0l0,0l0,0l0,0l0,0l0,0
		l0,0l0,0l0,0l0,0l0,0l0,0l0,0l0,0l0,0l0,0l0,0l0,0l0,0l0,0l0,0l0,0l0,0l0,0l0,0l0,0l0,0l0,0l0,0l0,0l0,0l0,0l0,0l0,0l0,0l0,0l0,0
		l0,0l0,0l0,0l0,0l0,0l0,0l0,0l0,0l0,0l0,0l0,0l0,0l0,0l0,0l0,0l0,0l0,0l0,0l0,0l0,0l0,0l0,0l0,0l0,0l0,0l0,0l0,0l0,0l0,0l0,0l0,0
		l0,0l1.3-1.4c1.7,1.2,3.6,2,5.6,2.6v6.5h8.9v0h0v0h0v0h0v0h0v0h0v0h0v0h0v0h0v0h0v0h0v0h0v0h0v0h0v0h0v0h0v0h0v0h0v0h0v0h0v0h0v0h0
		v0h0v0h0v0h0v0h0v0h0v0h0v0h0v0h0v0h0v0h0v0h0v0h0v0h0v0h0v0h0v0h0v0h0v0h0v0h0v0h0v0h0v0h0v0h0v0h0v0h0v0h0v0h0v0h0v0h0v0h0v0h0v0
		h0v0h0v0h0v0h0v0h0v0h0v0h0v0h0v0h0v0h0v0h0v0h0v0h0v0h0v0h0v0h0v0h0v0h0v0h0v0h0v0h0v0h0v0h0v0h0v0h0v0h0v0h0v0h0v0h0v0h0v0h0v0h0
		v0h0v0h0v0h0v0h0v0h0v0h0v0h0v0h0v0h0v0h0v0h0v0h0v0h0v0h0v0h0v0h0v-4.6c1-0.5,2-1,3-1.7l3.9,4.3l0,0l0,0l0,0l0,0l0,0l0,0l0,0l0,0
		l0,0l0,0l0,0l0,0l0,0l0,0l0,0l0,0l0,0l0,0l0,0l0,0l0,0l0,0l0,0l0,0l0,0l0,0l0,0l0,0l0,0l0,0l0,0l0,0l0,0l0,0l0,0l0,0l0,0l0,0l0,0
		l0,0l0,0l0,0l0,0l0,0l0,0l0,0l0,0l0,0l0,0l0,0l0,0l0,0l0,0l0,0l0,0l0,0l0,0l0,0l0,0l0,0l0,0l0,0l0,0l0,0l0,0l0,0l0,0l0,0l0,0l0,0
		l0,0l0,0l0,0l0,0l0,0l0,0l0,0l0,0l0,0l0,0l0,0l0,0l0,0l0,0l0,0l0,0l0,0l0,0l0,0l0,0l0,0l0,0l0,0l0,0l0,0l0,0l0,0l0,0l0,0l0,0l0,0
		l0,0l0,0l0,0l0,0l0,0l0,0l0,0l0,0l0,0l0,0l0,0l0,0l0,0l0,0l0,0l0,0l0,0l0,0l0,0l0,0l0,0l0,0l0,0l0,0l0,0l0,0l0,0l0,0l0,0l0,0l0,0
		l0,0l0,0l0,0l0,0l0,0l0,0l0,0l0,0l0,0l0,0l0,0l0,0l0,0l0,0l0,0l0,0l0,0l0,0l0,0l0,0l0,0l0,0l0,0l0,0l0,0l0,0l0,0l0,0l0,0l0,0l0,0
		l0,0l0,0l0,0l0,0l0,0l0,0l0,0l0,0l0,0l0,0l0,0l0,0l0,0l0,0l0,0l0,0l0,0l0,0l0,0l0,0l0,0l0,0l0,0l0,0l0,0l0,0l0,0l0,0l0,0l0,0l0,0
		l0,0l0,0l0,0l0,0l0,0l0,0l6.3-7l-3.9-4.3c0.7-1.2,1.2-2.4,1.6-3.7h3.2v0h0v0h0v0h0v0h0v0h0v0h0v0h0v0h0v0h0v0h0v0h0v0h0v0h0v0h0v0
		h0v0h0v0h0v0h0v0h0v0h0v0h0v0h0v0h0v0h0v0h0v0h0v0h0v0h0v0h0v0h0v0h0v0h0v0h0v0h0v0h0v0h0v0h0v0h0v0h0v0h0v0h0v0h0v0h0v0h0v0h0v0h0
		v0h0v0h0v0h0v0h0v0h0v0h0v0h0v0h0v0h0v0h0v0h0v0h0v0h0v0h0v0h0v0h0v0h0v0h0v0h0v0h0v0h0v0h0v0h0v0h0v0h0v0h0v0h0v0h0v0h0v0h0v0h0v0
		h0v0h0v0h0v0h0v0h0v0h0v0h0v0h0v0h0v0h0v0h0v0h0v0h0v0h0v0h0v0h0v0h0v0h0v0h0v0h0v0h0v0h0v0h0v-9.9h-5.5c-0.5-2.5-1.4-4.8-2.6-6.9
		l3.9-4.3l-6.3-7l0,0l0,0l0,0l0,0l0,0l0,0l0,0l0,0l0,0l0,0l0,0l0,0l0,0l0,0l0,0l0,0l0,0l0,0l0,0l0,0l0,0l0,0l0,0l0,0l0,0l0,0l0,0
		l0,0l0,0l0,0l0,0l0,0l0,0l0,0l0,0l0,0l0,0l0,0l0,0l0,0l0,0l0,0l0,0l0,0l0,0l0,0l0,0l0,0l0,0l0,0l0,0l0,0l0,0l0,0l0,0l0,0l0,0l0,0
		l0,0l0,0l0,0l0,0l0,0l0,0l0,0l0,0l0,0l0,0l0,0l0,0l0,0l0,0l0,0l0,0l0,0l0,0l0,0l0,0l0,0l0,0l0,0l0,0l0,0l0,0l0,0l0,0l0,0l0,0l0,0
		l0,0l0,0l0,0l0,0l0,0l0,0l0,0l0,0l0,0l0,0l0,0l0,0l0,0l0,0l0,0l0,0l0,0l0,0l0,0l0,0l0,0l0,0l0,0l0,0l0,0l0,0l0,0l0,0l0,0l0,0l0,0
		l0,0l0,0l0,0l0,0l0,0l0,0l0,0l0,0l0,0l0,0l0,0l0,0l0,0l0,0l0,0l0,0l0,0l0,0l0,0l0,0l0,0l0,0l0,0l0,0l0,0l0,0l0,0l0,0l0,0l0,0l0,0
		l0,0l0,0l0,0l0,0l0,0l0,0l0,0l0,0l0,0l0,0l0,0l0,0l0,0l0,0l0,0l0,0l0,0l0,0l0,0l0,0l0,0l0,0l0,0l0,0l0,0l0,0l0,0l0,0l0,0l0,0l0,0
		l0,0l0,0l0,0l0,0l0,0l0,0l0,0l0,0l0,0l0,0l0,0l0,0l0,0l0,0l0,0l0,0l0,0l0,0l-1.2,1.4c-1.7-1.1-3.6-2-5.7-2.4v-6.1H55.4z
		 M54.7,488.1c0.7-0.3,1.5-0.5,2.4-0.5c3.6,0,6.4,3.2,6.4,7.1c0,1.4-0.4,2.6-1,3.7c-0.7,0.3-1.5,0.5-2.4,0.5c-3.6,0-6.4-3.2-6.4-7.1
		C53.8,490.5,54.1,489.2,54.7,488.1z"/>
	<g>
		<path d="M60.2,484.6c3.6,0,6.4,3.2,6.4,7.1c0,3.9-2.9,7.1-6.4,7.1c-3.6,0-6.4-3.2-6.4-7.1C53.8,487.8,56.7,484.6,60.2,484.6z
			 M55.5,470.6c-2.1,0.6-4.1,1.6-5.9,2.8l-3.9-4.3l-6.3,7l4,4.5c-1.1,2-1.9,4.2-2.3,6.5h-5.9v9.9h6c0.5,2.2,1.3,4.3,2.3,6.2
			l-4.1,4.6l6.3,7l4.1-4.5c1.8,1.3,3.8,2.2,5.9,2.8v6.5h8.9v-6.4c2.2-0.5,4.2-1.5,6.1-2.8l3.9,4.3l6.3-7l-3.9-4.3
			c1.1-2,2-4.2,2.5-6.6h5.5v-9.9h-5.5c-0.5-2.5-1.4-4.8-2.6-6.9l3.9-4.3l-6.3-7l-4,4.5c-1.8-1.2-3.8-2.1-6-2.6v-6.1h-8.9V470.6z"/>
	</g>
</g>
<g>
	<g>
		<g>
			<path class="st10" d="M218.4,478.6l39.9-55.6c0,0,11.5,0,3.6,20.7l-10.7,29.1L218.4,478.6z"/>
			<path class="st10" d="M265.1,498.4c2.1-2.2,5-3.2,7.8-2.6l28.8,5.9c4,0.8,8.2,0.2,11.9-1.8c4.6-2.5,9.4-6.9,6.9-13.6l-54.7-23.9
				c-3.2-1.4-6.8-1-9.6,1.1l-37.8,15.1L202.5,500L265.1,498.4z"/>
			<path class="st10" d="M124.3,535.3l0.6,86.5c0,0,16.7-0.4,37.7-3.3c36.4-4.9,91-16.9,117.1-46.3c1.9-2.2,4.4-3.6,7.1-4.5
				c9-2.8,29.4-10.5,24.9-19.8c-6.6-13.7-44.2-4.1-44.2-4.1s-28.2,9.9-29.9-2.7c-1.3-9.7,16.6-22.4,24.9-27.7
				c2.5-1.6,5.5-1.7,8.1-0.4l26.6,13.6c3.7,1.9,7.9,2.5,11.9,1.5c5.1-1.2,10.7-4.1,9.7-11.3l-47.6-38.1c-2.8-2.2-6.4-2.8-9.6-1.6
				l-59,22.8l-27.2,34.2L124.3,535.3z"/>
			<path class="st11" d="M299.4,501.4l-28.3-22.6c-2.8-2.2-6.4-2.8-9.6-1.6l-35.4,13.7"/>
			<line class="st11" x1="254.2" y1="464.3" x2="227.5" y2="474.7"/>
			<path class="st11" d="M283.1,566.3c0,0,0.2-6.9-2.4-11"/>
		</g>
	</g>
	<g>
		<path class="st12" d="M313.5,535c-0.8-0.4-1.5-0.8-2.2-1.1c-2.2-1.1-4.4-2.3-6.6-3.4c-0.2-0.1-0.3-0.1-0.5-0.3
			c-0.5-0.4-0.5-1.1,0.1-1.4c0.4-0.2,0.9-0.4,1.3-0.6c10.4-4.3,20.8-8.6,31.2-12.8c0.4-0.2,0.8-0.3,1.1,0c0.4,0.4,0.2,0.8,0.1,1.2
			c-4.3,11-8.6,22.1-12.9,33.1c-0.1,0.1-0.1,0.3-0.2,0.4c-0.3,0.5-1,0.6-1.3,0.1c-0.1-0.2-0.2-0.4-0.3-0.6c-1.4-2.8-2.8-5.7-4.1-8.5
			c-0.1-0.1-0.1-0.3-0.2-0.5c-0.1,0.1-0.3,0.2-0.4,0.4c-2.2,2.2-4.4,4.5-6.6,6.7c-0.1,0.1-0.2,0.3-0.4,0.4c-0.3,0.2-0.7,0.2-1,0
			c0,0,0,0,0,0c-1.5-1.5-2.9-3-4.4-4.5c-0.3-0.3-0.3-0.7,0-1.1c0.1-0.1,0.2-0.2,0.3-0.3c0.8-0.9,1.7-1.7,2.5-2.6
			c1.3-1.4,2.7-2.8,4-4.1C313.3,535.3,313.4,535.2,313.5,535z"/>
	</g>
</g>
<g>
	<g>
		<path class="st13" d="M686,652.4"/>
		<path class="st13" d="M636.8,589.2c-12.9-8.6-16.9,0.5-16.9,0.5c-7.4-4.8-13.7-2.3-17.3,0.1l-33-35.3c0,0-14.4,2.2-1.3,26.4
			l28,42.7c8.1,13.9,20,36.7,16.8,42.4c-3.1,5.5-9.4,3.1-13.5,0.6c-4.2-2.6-7.9-6-12.1-8.7c-5.6-3.7-11.6-6.9-17.8-9.1
			c-3.5-1.2-9.2-3.2-12.3-0.1c-6.4,6.4,6.3,18.1,12,24.8c13.8,16.3,100.5,117.4,100.5,117.4l83.1-56.8c0,0-72.1-110.8-83.7-125.4
			C645.7,578.9,636.8,589.2,636.8,589.2z"/>
		<path class="st14" d="M619.9,588.6c0,0,14.6,8.8,26.3,23.2"/>
		<path class="st14" d="M602.8,589.6c0,0,18.1,19.1,30,34.6"/>
		<path class="st14" d="M636.9,588.5c0,0,6.8,2.7,18.5,15.5"/>
		<path class="st13" d="M608.1,644.6c0,0-3.5,13.7-8.9,9.9c-8.4-5.9-9.4-43.2-9.4-43.2L608.1,644.6z"/>
		<line class="st14" x1="589.7" y1="613.9" x2="607.9" y2="645.3"/>
	</g>
</g>
<g>
	<line class="st15" x1="573.6" y1="545.2" x2="577.8" y2="537.3"/>
	<line class="st15" x1="564.2" y1="544.7" x2="563" y2="535.7"/>
	<line class="st15" x1="556.8" y1="551" x2="550.6" y2="544.9"/>
	<line class="st15" x1="554.7" y1="561.1" x2="546.4" y2="560.8"/>
</g>
<g>
	<polygon class="st16" points="802.9,804.3 761.3,764.6 731.7,838.1 	"/>
	<polygon class="st17" points="802.9,804.3 766,803.5 761.3,764.6 	"/>
	<polygon class="st3" points="761.3,764.6 766,803.5 731.7,838.1 	"/>
</g>
<g>
	<path class="st18" d="M809.3,510.8v-8.4c2.8-0.7,5.4-1.8,7.8-3.4l1.7,1.9l0,0l0,0l0,0l0,0l0,0l0,0l0,0l0,0l0,0l0,0l0,0l0,0l0,0l0,0
		l0,0l0,0l0,0l0,0l0,0l0,0l0,0l0,0l0,0l0,0l0,0l0,0l0,0l0,0l0,0l0,0l0,0l0,0l0,0l0,0l0,0l0,0l0,0l0,0l0,0l0,0l0,0l0,0l0,0l0,0l0,0
		l0,0l0,0l0,0l0,0l0,0l0,0l0,0l0,0l0,0l0,0l0,0l0,0l0,0l0,0l0,0l0,0l0,0l0,0l0,0l0,0l0,0l0,0l0,0l0,0l0,0l0,0l0,0l0,0l0,0l0,0l0,0
		l0,0l0,0l0,0l0,0l0,0l0,0l0,0l0,0l0,0l0,0l0,0l0,0l0,0l0,0l0,0l0,0l0,0l0,0l0,0l0,0l0,0l0,0l0,0l0,0l0,0l0,0l0,0l0,0l0,0l0,0l0,0
		l0,0l0,0l0,0l0,0l0,0l0,0l0,0l0,0l0,0l0,0l0,0l0,0l0,0l0,0l0,0l0,0l0,0l0,0l0,0l0,0l0,0l0,0l0,0l0,0l0,0l0,0l0,0l0,0l0,0l0,0l0,0
		l0,0l0,0l0,0l0,0l0,0l0,0l0,0l0,0l0,0l0,0l0,0l0,0l0,0l0,0l0,0l0,0l0,0l0,0l0,0l0,0l0,0l0,0l0,0l0,0l0,0l0,0l0,0l0,0l0,0l0,0l0,0
		l0,0l0,0l0,0l0,0l0,0l0,0l0,0l0,0l0,0l0,0l0,0l0,0l0,0l0,0l0,0l0,0l0,0l0,0l0,0l0,0l0,0l0,0l0,0l0,0l0,0l0,0l0,0l0,0l0,0l0,0l0,0
		l8.7-9.6l-5.4-6c1.7-2.9,2.9-6.1,3.6-9.5h7.5v-13.6h0v0h0v0h0v0h0v0h0v0h0v0h0v0h0v0h0v0h0v0h0v0h0v0h0v0h0v0h0v0h0v0h0v0h0v0h0v0
		h0v0h0v0h0v0h0v0h0v0h0v0h0v0h0v0h0v0h0v0h0v0h0v0h0v0h0v0h0v0h0v0h0v0h0v0h0v0h0v0h0v0h0v0h0v0h0v0h0v0h0v0h0v0h0v0h0v0h0v0h0v0h0
		v0h0v0h0v0h0v0h0v0h0v0h0v0h0v0h0v0h0v0h0v0h0v0h0v0h0v0h0v0h0v0h0v0h0v0h0v0h0v0h0v0h0v0h0v0h0v0h0v0h0v0h0v0h0v0h0v0h0v0h0v0h0v0
		h0v0h0v0h0v0h0v0h0v0h0v0h0v0h0v0h0v0h0v0h0v0h0v0h0v0h0v0h0v0h0v0h0v0h0v0h-4.4c-0.6-1.8-1.4-3.5-2.3-5.1l5.3-5.9l-8.7-9.6l0,0
		l0,0l0,0l0,0l0,0l0,0l0,0l0,0l0,0l0,0l0,0l0,0l0,0l0,0l0,0l0,0l0,0l0,0l0,0l0,0l0,0l0,0l0,0l0,0l0,0l0,0l0,0l0,0l0,0l0,0l0,0l0,0
		l0,0l0,0l0,0l0,0l0,0l0,0l0,0l0,0l0,0l0,0l0,0l0,0l0,0l0,0l0,0l0,0l0,0l0,0l0,0l0,0l0,0l0,0l0,0l0,0l0,0l0,0l0,0l0,0l0,0l0,0l0,0
		l0,0l0,0l0,0l0,0l0,0l0,0l0,0l0,0l0,0l0,0l0,0l0,0l0,0l0,0l0,0l0,0l0,0l0,0l0,0l0,0l0,0l0,0l0,0l0,0l0,0l0,0l0,0l0,0l0,0l0,0l0,0
		l0,0l0,0l0,0l0,0l0,0l0,0l0,0l0,0l0,0l0,0l0,0l0,0l0,0l0,0l0,0l0,0l0,0l0,0l0,0l0,0l0,0l0,0l0,0l0,0l0,0l0,0l0,0l0,0l0,0l0,0l0,0
		l0,0l0,0l0,0l0,0l0,0l0,0l0,0l0,0l0,0l0,0l0,0l0,0l0,0l0,0l0,0l0,0l0,0l0,0l0,0l0,0l0,0l0,0l0,0l0,0l0,0l0,0l0,0l0,0l0,0l0,0l0,0
		l0,0l0,0l0,0l0,0l0,0l0,0l0,0l0,0l0,0l0,0l0,0l0,0l0,0l0,0l0,0l0,0l0,0l0,0l0,0l0,0l0,0l0,0l0,0l0,0l0,0l0,0l0,0l0,0l0,0l0,0l0,0
		l0,0l0,0l0,0l0,0l0,0l0,0l0,0l0,0l0,0l0,0l0,0l0,0l0,0l-5.3,5.9c-1.3-0.9-2.7-1.7-4.1-2.3v-6.3h0v0h0v0h0v0h0v0h0v0h0v0h0v0h0v0h0
		v0h0v0h0v0h0v0h0v0h0v0h0v0h0v0h0v0h0v0h0v0h0v0h0v0h0v0h0v0h0v0h0v0h0v0h0v0h0v0h0v0h0v0h0v0h0v0h0v0h0v0h0v0h0v0h0v0h0v0h0v0h0v0
		h0v0h0v0h0v0h0v0h0v0h0v0h0v0h0v0h0v0h0v0h0v0h0v0h0v0h0v0h0v0h0v0h0v0h0v0h0v0h0v0h0v0h0v0h0v0h0v0h0v0h0v0h0v0h0v0h0v0h0v0h0v0h0
		v0h0v0h0v0h0v0h0v0h0v0h0v0h0v0h0v0h0v0h0v0h0v0h0v0h0v0h0v0h0v0h0v0h0v0h0v0h0v0h0v0h0v0h0v0h0v0h0v0h0v0h0v0h0v0h0v0H793v8.9
		c-2.8,0.7-5.4,1.9-7.7,3.5l-1.8-1.9l0,0l0,0l0,0l0,0l0,0l0,0l0,0l0,0l0,0l0,0l0,0l0,0l0,0l0,0l0,0l0,0l0,0l0,0l0,0l0,0l0,0l0,0l0,0
		l0,0l0,0l0,0l0,0l0,0l0,0l0,0l0,0l0,0l0,0l0,0l0,0l0,0l0,0l0,0l0,0l0,0l0,0l0,0l0,0l0,0l0,0l0,0l0,0l0,0l0,0l0,0l0,0l0,0l0,0l0,0
		l0,0l0,0l0,0l0,0l0,0l0,0l0,0l0,0l0,0l0,0l0,0l0,0l0,0l0,0l0,0l0,0l0,0l0,0l0,0l0,0l0,0l0,0l0,0l0,0l0,0l0,0l0,0l0,0l0,0l0,0l0,0
		l0,0l0,0l0,0l0,0l0,0l0,0l0,0l0,0l0,0l0,0l0,0l0,0l0,0l0,0l0,0l0,0l0,0l0,0l0,0l0,0l0,0l0,0l0,0l0,0l0,0l0,0l0,0l0,0l0,0l0,0l0,0
		l0,0l0,0l0,0l0,0l0,0l0,0l0,0l0,0l0,0l0,0l0,0l0,0l0,0l0,0l0,0l0,0l0,0l0,0l0,0l0,0l0,0l0,0l0,0l0,0l0,0l0,0l0,0l0,0l0,0l0,0l0,0
		l0,0l0,0l0,0l0,0l0,0l0,0l0,0l0,0l0,0l0,0l0,0l0,0l0,0l0,0l0,0l0,0l0,0l0,0l0,0l0,0l0,0l0,0l0,0l0,0l0,0l0,0l0,0l0,0l0,0l0,0l0,0
		l0,0l0,0l0,0l0,0l0,0l0,0l0,0l0,0l0,0l0,0l0,0l0,0l0,0l0,0l0,0l0,0l0,0l0,0l0,0l0,0l0,0l0,0l-8.7,9.6l5.7,6.3
		c-1.5,2.6-2.6,5.5-3.2,8.6h-8.2v13.6h0v0h0v0h0v0h0v0h0v0h0v0h0v0h0v0h0v0h0v0h0v0h0v0h0v0h0v0h0v0h0v0h0v0h0v0h0v0h0v0h0v0h0v0h0
		v0h0v0h0v0h0v0h0v0h0v0h0v0h0v0h0v0h0v0h0v0h0v0h0v0h0v0h0v0h0v0h0v0h0v0h0v0h0v0h0v0h0v0h0v0h0v0h0v0h0v0h0v0h0v0h0v0h0v0h0v0h0v0
		h0v0h0v0h0v0h0v0h0v0h0v0h0v0h0v0h0v0h0v0h0v0h0v0h0v0h0v0h0v0h0v0h0v0h0v0h0v0h0v0h0v0h0v0h0v0h0v0h0v0h0v0h0v0h0v0h0v0h0v0h0v0h0
		v0h0v0h0v0h0v0h0v0h0v0h0v0h0v0h0v0h0v0h0v0h0v0h0v0h0v0h0v0h4.9c0.6,1.7,1.3,3.4,2.1,4.9l-5.5,6.1l8.7,9.6l0,0l0,0l0,0l0,0l0,0
		l0,0l0,0l0,0l0,0l0,0l0,0l0,0l0,0l0,0l0,0l0,0l0,0l0,0l0,0l0,0l0,0l0,0l0,0l0,0l0,0l0,0l0,0l0,0l0,0l0,0l0,0l0,0l0,0l0,0l0,0l0,0
		l0,0l0,0l0,0l0,0l0,0l0,0l0,0l0,0l0,0l0,0l0,0l0,0l0,0l0,0l0,0l0,0l0,0l0,0l0,0l0,0l0,0l0,0l0,0l0,0l0,0l0,0l0,0l0,0l0,0l0,0l0,0
		l0,0l0,0l0,0l0,0l0,0l0,0l0,0l0,0l0,0l0,0l0,0l0,0l0,0l0,0l0,0l0,0l0,0l0,0l0,0l0,0l0,0l0,0l0,0l0,0l0,0l0,0l0,0l0,0l0,0l0,0l0,0
		l0,0l0,0l0,0l0,0l0,0l0,0l0,0l0,0l0,0l0,0l0,0l0,0l0,0l0,0l0,0l0,0l0,0l0,0l0,0l0,0l0,0l0,0l0,0l0,0l0,0l0,0l0,0l0,0l0,0l0,0l0,0
		l0,0l0,0l0,0l0,0l0,0l0,0l0,0l0,0l0,0l0,0l0,0l0,0l0,0l0,0l0,0l0,0l0,0l0,0l0,0l0,0l0,0l0,0l0,0l0,0l0,0l0,0l0,0l0,0l0,0l0,0l0,0
		l0,0l0,0l0,0l0,0l0,0l0,0l0,0l0,0l0,0l0,0l0,0l0,0l0,0l0,0l0,0l0,0l0,0l0,0l0,0l0,0l0,0l0,0l0,0l0,0l0,0l0,0l0,0l0,0l0,0l0,0l0,0
		l0,0l0,0l0,0l0,0l0,0l0,0l0,0l0,0l0,0l5.4-6c1.2,0.9,2.5,1.6,3.8,2.3v6.3h0v0h0v0h0v0h0v0h0v0h0v0h0v0h0v0h0v0h0v0h0v0h0v0h0v0h0v0
		h0v0h0v0h0v0h0v0h0v0h0v0h0v0h0v0h0v0h0v0h0v0h0v0h0v0h0v0h0v0h0v0h0v0h0v0h0v0h0v0h0v0h0v0h0v0h0v0h0v0h0v0h0v0h0v0h0v0h0v0h0v0h0
		v0h0v0h0v0h0v0h0v0h0v0h0v0h0v0h0v0h0v0h0v0h0v0h0v0h0v0h0v0h0v0h0v0h0v0h0v0h0v0h0v0h0v0h0v0h0v0h0v0h0v0h0v0h0v0h0v0h0v0h0v0h0v0
		h0v0h0v0h0v0h0v0h0v0h0v0h0v0h0v0h0v0h0v0h0v0h0v0h0v0h0v0h0v0h0v0h0v0h0v0h0v0h0v0h0v0h0v0h0v0H809.3z M794.8,473
		c0-5.4,4-9.8,8.9-9.8c1.2,0,2.3,0.3,3.3,0.7c0.8,1.5,1.3,3.2,1.3,5.1c0,5.4-4,9.8-8.9,9.8c-1.2,0-2.3-0.3-3.3-0.7
		C795.3,476.6,794.8,474.8,794.8,473z"/>
	<g>
		<path class="st10" d="M794.8,473c0-5.4,4-9.8,8.9-9.8c4.9,0,8.9,4.4,8.9,9.8c0,5.4-4,9.8-8.9,9.8
			C798.8,482.8,794.8,478.4,794.8,473z M797.1,510.8h12.3v-8.4c3-0.7,5.7-2,8.2-3.6l5.5,6.1l8.7-9.6l-5.4-6c1.7-2.9,2.9-6.1,3.6-9.5
			h7.5v-13.6h-7.5c-0.7-3.3-1.8-6.3-3.4-9.1l5.3-5.9l-8.7-9.6l-5.3,5.9c-2.5-1.8-5.4-3.1-8.4-3.8v-8.8h-12.3v8.9
			c-2.9,0.8-5.7,2.1-8.2,3.8l-5.6-6.2l-8.7,9.6l5.7,6.3c-1.5,2.6-2.6,5.5-3.2,8.6h-8.2v13.6h8.1c0.6,3.2,1.7,6.2,3.2,8.9l-5.5,6.1
			l8.7,9.6l5.4-6c2.5,1.8,5.2,3.1,8.1,3.9V510.8z"/>
	</g>
</g>
<g>
	<path class="st3" d="M780.1,310.1v64.7c0,8.6-7,15.6-15.6,15.6h-47.1c-8.6,0-15.6-7-15.6-15.6v-64.7c0-8.6,7-15.6,15.6-15.6h47.1
		C773.1,294.5,780.1,301.6,780.1,310.1z"/>
	<g>
		<path class="st12" d="M760.2,316.8v12.1h-0.8c-0.4-3.2-1.2-5.5-2.6-6.9c-1.3-1.3-3.3-2-5.9-2h-6.5v39.3c0,1.7,0.1,3.1,0.3,4.1
			c0.2,1,0.5,1.7,0.9,2.2c0.4,0.5,0.9,0.8,1.5,0.9c0.6,0.1,1.3,0.2,2.1,0.2h1.6v1.4h-19.7v-1.4h1.6c0.8,0,1.5-0.1,2.1-0.2
			c0.6-0.2,1.1-0.5,1.5-1c0.4-0.5,0.7-1.3,0.9-2.2c0.2-1,0.3-2.3,0.3-4V320h-5.6c-1.4,0-2.6,0.1-3.7,0.4c-1.1,0.2-2,0.7-2.8,1.4
			c-0.8,0.7-1.4,1.6-1.9,2.7c-0.5,1.2-0.7,2.6-0.8,4.4h-1.3v-12.1H760.2z"/>
	</g>
</g>
<g>
	<path d="M168.9,657.6H288c5.3,0,9.7,4.4,9.7,9.7v105.6c0,5.3-4.4,9.7-9.7,9.7H168.9c-5.3,0-9.7-4.4-9.7-9.7V667.3
		C159.2,661.9,163.6,657.6,168.9,657.6z"/>
	<polygon points="296.9,742.2 316.5,720.6 296.9,698.9 	"/>
</g>
<g>
	<path class="st12" d="M240.1,683l4.2,0.6c3.2,0.5,5.8,2.1,7.7,4.8c1.9,2.7,2.9,6.3,2.9,10.9v6.3c0,2.8,0.7,5.2,2,7.2
		c1.3,2,3,3.3,5,4c0.3,0.8,0.4,1.8,0.4,3.2c0,1.4-0.1,2.5-0.4,3.2c-2,0.7-3.7,2-5,4c-1.3,2-2,4.4-2,7.2v6.2c0,4.6-1,8.3-2.9,11
		c-1.9,2.7-4.5,4.3-7.7,4.8l-4.2,0.6c-0.4-0.4-0.7-1.1-1-1.9c-0.3-0.8-0.4-1.7-0.5-2.5c-0.1-0.9-0.1-1.7,0.1-2.4l3.5-1
		c1.5-0.4,2.5-1.4,3.1-3c0.6-1.6,0.9-3.5,0.9-5.6v-5.9c0-3,0.7-5.9,2.1-8.5c1.4-2.7,3.2-4.6,5.4-5.7v-0.8c-2.2-1.1-4-3-5.4-5.7
		c-1.4-2.7-2.1-5.5-2.1-8.6v-6c0-2.1-0.3-4-0.9-5.6c-0.6-1.6-1.7-2.6-3.1-3l-3.5-1c-0.1-0.7-0.2-1.5-0.1-2.4
		c0.1-0.9,0.3-1.7,0.5-2.5C239.4,684.1,239.7,683.4,240.1,683z"/>
	<path class="st12" d="M216.9,683c0.4,0.5,0.7,1.1,1,1.9s0.4,1.7,0.5,2.5c0.1,0.9,0.1,1.7-0.1,2.4l-3.5,1c-1.4,0.4-2.5,1.4-3.1,3
		c-0.6,1.6-0.9,3.4-0.9,5.6v6c0,3-0.7,5.9-2.1,8.6c-1.4,2.7-3.2,4.6-5.4,5.7v0.8c2.2,1.1,4,3,5.4,5.7c1.4,2.7,2.1,5.5,2.1,8.5v5.9
		c0,2.2,0.3,4,0.9,5.6c0.6,1.6,1.7,2.6,3.1,3l3.5,1c0.1,0.7,0.2,1.5,0.1,2.4c-0.1,0.9-0.3,1.7-0.5,2.5s-0.6,1.4-1,1.9l-4.2-0.6
		c-3.2-0.5-5.8-2.1-7.7-4.8c-1.9-2.7-2.9-6.3-2.9-11v-6.2c0-2.8-0.7-5.2-2-7.2c-1.3-2-3-3.3-5-4c-0.3-0.8-0.5-1.8-0.5-3.2
		c0-1.4,0.2-2.5,0.5-3.2c2-0.7,3.7-2,5-4c1.3-2,2-4.4,2-7.2v-6.3c0-4.6,1-8.2,2.9-10.9c1.9-2.7,4.5-4.3,7.7-4.8L216.9,683z"/>
</g>
<g>
	<g>
		<path class="st19" d="M726.5,426H621.7c-4.7,0-8.5,3.8-8.5,8.5v93c0,4.7,3.8,8.5,8.5,8.5h104.8c4.7,0,8.5-3.8,8.5-8.5v-93
			C735,429.8,731.2,426,726.5,426z"/>
		<polygon class="st19" points="613.8,500.5 596.6,481.4 613.8,462.4 		"/>
	</g>
	<g>
		<path d="M656.3,466.6c0.8,0.5,1.4,1.2,2,2.2c0.6,1,0.9,2.1,0.9,3.3l-14.6,8.4c-0.6,0.3-1.3,0.7-2.3,1.2c-1,0.5-1.7,0.9-2.2,1.1
			v0.4c0.5,0.2,1.2,0.6,2.2,1.1c1,0.5,1.7,0.9,2.3,1.2l14.6,8.4c-0.1,1.2-0.4,2.2-1,3.3c-0.6,1-1.2,1.8-1.9,2.3l-22.6-13.7
			c-0.2-0.8-0.3-1.8-0.4-2.8c0-1,0.1-2,0.4-2.8L656.3,466.6z"/>
		<path d="M679.9,456.1c0.9,0.1,1.9,0.3,2.9,0.7c1,0.4,1.9,0.9,2.6,1.6L666,515.3c-0.9-0.1-1.9-0.3-2.8-0.7c-1-0.4-1.9-0.9-2.7-1.6
			L679.9,456.1z"/>
		<path d="M689.6,499.6c-0.7-0.5-1.4-1.2-1.9-2.2c-0.6-1-0.9-2.1-1-3.3l14.6-8.5c0.6-0.3,1.3-0.8,2.3-1.2c1-0.5,1.7-0.8,2.2-1.1
			v-0.4c-0.5-0.2-1.2-0.6-2.2-1.1c-1-0.5-1.7-0.9-2.3-1.2l-14.6-8.4c0.1-1.2,0.5-2.3,1-3.3c0.6-1,1.2-1.8,1.9-2.3l22.6,13.7
			c0.2,0.8,0.3,1.7,0.3,2.8c0,1-0.1,2-0.3,2.8L689.6,499.6z"/>
	</g>
</g>
<g>
	<path class="st20" d="M163.5,316.8H49.7c-3.2,0-5.9,2.9-5.9,6.5v67.3c0,3.6,2.6,6.5,5.9,6.5h45.3l11.7,12.9l11.7-12.9h45.3
		c3.2,0,5.9-2.9,5.9-6.5v-67.3C169.4,319.7,166.8,316.8,163.5,316.8z"/>
</g>
<g>
	<path class="st12" d="M63.5,366.4c0.6,0.4,1.2,0.7,1.8,1c0.6,0.3,1.2,0.4,1.9,0.4c1.5,0,2.5-0.5,2.9-1.5c0.5-1,0.7-2.4,0.7-4.2
		v-19.7c0.5-0.1,1.1-0.2,1.7-0.2c0.6,0,1.1,0,1.5,0c0.4,0,1,0,1.6,0c0.6,0,1.2,0.1,1.7,0.2v19.1c0,1.8-0.1,3.4-0.4,4.9
		c-0.3,1.5-0.8,2.8-1.5,3.9c-0.7,1.1-1.7,2-2.9,2.6c-1.2,0.6-2.8,0.9-4.7,0.9c-1.1,0-2.2-0.2-3.4-0.5c-1.2-0.3-2.3-0.8-3.3-1.5
		c0.1-0.9,0.4-1.8,0.8-2.8C62.4,368,62.9,367.2,63.5,366.4z"/>
	<path class="st12" d="M88.8,342.4c0.5-0.1,1.1-0.2,1.9-0.2c0.7,0,1.4-0.1,1.9-0.1c0.5,0,1.1,0,1.9,0.1c0.7,0,1.4,0.1,1.9,0.2
		l8.8,30.4c-0.4,0.3-1,0.5-1.7,0.7c-0.7,0.2-1.4,0.2-2,0.2c-1,0-1.8-0.3-2.4-0.8c-0.6-0.5-1.1-1.6-1.5-3.1l-2.9-11.5
		c-0.3-1.3-0.7-2.8-1.1-4.5c-0.4-1.7-0.8-3.3-1.2-4.8h-0.2c-0.1,0.8-0.3,1.8-0.6,2.8c-0.2,1-0.5,2-0.7,3.1c-0.3,1-0.5,1.9-0.7,2.8
		L86,373.4c-0.4,0.1-0.8,0.2-1.3,0.2c-0.5,0-1,0.1-1.5,0.1c-0.5,0-1,0-1.7-0.1c-0.6-0.1-1.1-0.2-1.5-0.4l-0.2-0.4L88.8,342.4z
		 M89.3,366.9c-0.2,0-0.4,0-0.7,0c-0.3,0-0.5,0-0.7,0c-0.2,0-0.5,0-0.7,0h-3.4l2-5.6h3c0.2,0,0.4,0,0.7,0c0.2,0,0.5,0,0.7,0
		c0.2,0,0.5,0,0.7,0h3c0.2,0,0.4,0,0.7,0c0.2,0,0.5,0,0.7,0c0.3,0,0.5,0,0.7,0H99l1.7,5.6h-3.5c-0.2,0-0.4,0-0.7,0
		c-0.3,0-0.5,0-0.8,0c-0.3,0-0.5,0-0.7,0H89.3z"/>
	<path class="st12" d="M121.8,342.4c0.5-0.1,1-0.2,1.5-0.2c0.5,0,1,0,1.4,0c0.4,0,0.9,0,1.5,0.1c0.6,0.1,1.1,0.2,1.5,0.4l0.3,0.4
		l-7.7,30.3c-0.7,0.1-1.6,0.2-2.5,0.2c-0.9,0-1.8,0.1-2.7,0.1c-1.2,0-2.2-0.2-2.9-0.7c-0.7-0.4-1.2-1.3-1.5-2.6l-6.8-27.3
		c0.6-0.3,1.2-0.5,1.9-0.7c0.7-0.2,1.3-0.3,2.1-0.3c1,0,1.7,0.3,2.3,0.9c0.5,0.6,1,1.5,1.2,2.7l3.1,12.9c0.2,0.9,0.4,1.8,0.6,2.7
		c0.2,0.9,0.4,1.9,0.5,2.8c0.2,0.9,0.3,1.8,0.4,2.7c0.1,0.4,0.2,0.6,0.4,0.6L121.8,342.4z"/>
	<path class="st12" d="M135.6,342.4c0.5-0.1,1.1-0.2,1.9-0.2c0.7,0,1.4-0.1,1.9-0.1c0.5,0,1.1,0,1.9,0.1c0.7,0,1.4,0.1,1.9,0.2
		l8.8,30.4c-0.4,0.3-1,0.5-1.7,0.7c-0.7,0.2-1.4,0.2-2,0.2c-1,0-1.8-0.3-2.4-0.8c-0.6-0.5-1.1-1.6-1.5-3.1l-2.9-11.5
		c-0.3-1.3-0.7-2.8-1.1-4.5c-0.4-1.7-0.8-3.3-1.2-4.8h-0.2c-0.1,0.8-0.3,1.8-0.6,2.8c-0.2,1-0.5,2-0.7,3.1c-0.3,1-0.5,1.9-0.7,2.8
		l-4.2,15.7c-0.4,0.1-0.8,0.2-1.3,0.2c-0.5,0-1,0.1-1.5,0.1c-0.5,0-1,0-1.7-0.1c-0.6-0.1-1.1-0.2-1.5-0.4l-0.2-0.4L135.6,342.4z
		 M136.1,366.9c-0.2,0-0.4,0-0.7,0c-0.3,0-0.5,0-0.7,0c-0.2,0-0.5,0-0.7,0h-3.4l2-5.6h3c0.2,0,0.4,0,0.7,0c0.2,0,0.5,0,0.7,0
		c0.2,0,0.5,0,0.7,0h3c0.2,0,0.4,0,0.7,0c0.2,0,0.5,0,0.7,0c0.3,0,0.5,0,0.7,0h3.1l1.7,5.6H144c-0.2,0-0.4,0-0.7,0
		c-0.3,0-0.5,0-0.8,0c-0.3,0-0.5,0-0.7,0H136.1z"/>
</g>
<path class="st21" d="M72.1,651.8l30.1-11.1c-6.9-22.9-21-40.9-38.7-51.9l-14.2,31.5C59.7,627.2,68,638.1,72.1,651.8z"/>
<path class="st22" d="M71,692.1l28.5,15.7c8.1-20.5,9.7-44.3,2.8-67.2l-30.1,11.1C76.2,665.5,75.5,679.7,71,692.1z"/>
<path class="st13" d="M1.1,579.8l10.1,33.5c13.4-3.2,27-0.4,38.1,7.1l14.2-31.5C45.1,577.3,22.9,573.5,1.1,579.8z"/>
<path class="st13" d="M-51.3,624.4c-11.3,22.2-14.3,49.4-6.5,75.4l30.1-11.1c-5.1-16.8-2.8-34.4,4.8-48.5
	c6.2-11.5,16-20.7,28.4-25.2c1.9-0.7,3.8-1.3,5.7-1.7L1.1,579.8c-1.9,0.5-3.8,1.1-5.6,1.8C-25.2,589.2-41.4,604.9-51.3,624.4z"/>
<path class="st23" d="M-27.7,688.7l-30.1,11.1c7.8,26,25,45.7,46.1,56c18.5,9,40,10.7,60.7,3.1c1.9-0.7,3.7-1.5,5.5-2.3
	c20.8-9.5,36.5-27.3,45-48.8L71,692.1c-4.9,13.4-14.2,24.7-26.7,31c-1.8,0.9-3.6,1.7-5.5,2.4c-12.4,4.6-25.2,3.8-36.4-1.3
	C-11.3,718.1-22.6,705.5-27.7,688.7z"/>
<g>
	<path class="st24" d="M761.5,949.2H601.3c-26,0-47.2-21.2-47.2-47.2s21.2-47.2,47.2-47.2h160.2c26,0,47.2,21.2,47.2,47.2
		S787.5,949.2,761.5,949.2z"/>
	<path class="st19" d="M483.5,949.2H323.3c-26,0-47.2-21.2-47.2-47.2s21.2-47.2,47.2-47.2h160.2c26,0,47.2,21.2,47.2,47.2
		S509.6,949.2,483.5,949.2z"/>
	<path class="st25" d="M207.5,949.2H47.2C21.2,949.2,0,928,0,901.9s21.2-47.2,47.2-47.2h160.2c26.1,0,47.2,21.2,47.2,47.2
		S233.5,949.2,207.5,949.2z"/>
</g>
<g>
	<text transform="matrix(1 0 0 1 34.98 926.57)" class="st12 st26 st27">WEB DEVELOPER</text>
	<text transform="matrix(1 0 0 1 651.61 925.72)" class="st10 st26 st27">UX DESIGN</text>
	<text transform="matrix(1 0 0 1 338.83 926.48)" class="st26 st27">UI/UX DESIGN</text>
</g>
</svg>
